<mxfile host="Electron" modified="2023-12-04T21:29:28.195Z" agent="Mozilla/5.0 (X11; Linux x86_64) AppleWebKit/537.36 (KHTML, like Gecko) draw.io/22.1.2 Chrome/114.0.5735.289 Electron/25.9.4 Safari/537.36" etag="ZAtV6YM7LwCDZzJzN2hR" version="22.1.2" type="device">
  <diagram id="C5RBs43oDa-KdzZeNtuy" name="Page-1">
    <mxGraphModel dx="1050" dy="723" grid="1" gridSize="10" guides="1" tooltips="1" connect="1" arrows="1" fold="1" page="1" pageScale="1" pageWidth="827" pageHeight="1169" math="0" shadow="0">
      <root>
        <mxCell id="WIyWlLk6GJQsqaUBKTNV-0" />
        <mxCell id="WIyWlLk6GJQsqaUBKTNV-1" parent="WIyWlLk6GJQsqaUBKTNV-0" />
        <mxCell id="YOyxNGKHcGNXCFZ_hqvo-15" value="" style="edgeStyle=orthogonalEdgeStyle;rounded=0;orthogonalLoop=1;jettySize=auto;html=1;" edge="1" parent="WIyWlLk6GJQsqaUBKTNV-1" source="YOyxNGKHcGNXCFZ_hqvo-3" target="YOyxNGKHcGNXCFZ_hqvo-4">
          <mxGeometry relative="1" as="geometry" />
        </mxCell>
        <mxCell id="YOyxNGKHcGNXCFZ_hqvo-3" value="Начало" style="rounded=1;whiteSpace=wrap;html=1;" vertex="1" parent="WIyWlLk6GJQsqaUBKTNV-1">
          <mxGeometry x="354" y="40" width="120" height="60" as="geometry" />
        </mxCell>
        <mxCell id="YOyxNGKHcGNXCFZ_hqvo-16" value="" style="edgeStyle=orthogonalEdgeStyle;rounded=0;orthogonalLoop=1;jettySize=auto;html=1;" edge="1" parent="WIyWlLk6GJQsqaUBKTNV-1" source="YOyxNGKHcGNXCFZ_hqvo-4" target="YOyxNGKHcGNXCFZ_hqvo-5">
          <mxGeometry relative="1" as="geometry" />
        </mxCell>
        <mxCell id="YOyxNGKHcGNXCFZ_hqvo-4" value="numbers = [2, 5, 13, 7, 6, 4]&lt;br&gt;size = 6&lt;br&gt;sum = 0&lt;br&gt;avg = 0&lt;br&gt;index = 0" style="rounded=0;whiteSpace=wrap;html=1;" vertex="1" parent="WIyWlLk6GJQsqaUBKTNV-1">
          <mxGeometry x="326" y="140" width="176" height="80" as="geometry" />
        </mxCell>
        <mxCell id="YOyxNGKHcGNXCFZ_hqvo-7" value="no" style="edgeStyle=orthogonalEdgeStyle;rounded=0;orthogonalLoop=1;jettySize=auto;html=1;" edge="1" parent="WIyWlLk6GJQsqaUBKTNV-1" source="YOyxNGKHcGNXCFZ_hqvo-5" target="YOyxNGKHcGNXCFZ_hqvo-6">
          <mxGeometry relative="1" as="geometry">
            <Array as="points">
              <mxPoint x="540" y="325" />
              <mxPoint x="540" y="325" />
            </Array>
          </mxGeometry>
        </mxCell>
        <mxCell id="YOyxNGKHcGNXCFZ_hqvo-11" value="yes" style="edgeStyle=orthogonalEdgeStyle;rounded=0;orthogonalLoop=1;jettySize=auto;html=1;" edge="1" parent="WIyWlLk6GJQsqaUBKTNV-1" source="YOyxNGKHcGNXCFZ_hqvo-5" target="YOyxNGKHcGNXCFZ_hqvo-10">
          <mxGeometry relative="1" as="geometry" />
        </mxCell>
        <mxCell id="YOyxNGKHcGNXCFZ_hqvo-5" value="index &amp;lt; size" style="rhombus;whiteSpace=wrap;html=1;" vertex="1" parent="WIyWlLk6GJQsqaUBKTNV-1">
          <mxGeometry x="337" y="260" width="154" height="130" as="geometry" />
        </mxCell>
        <mxCell id="YOyxNGKHcGNXCFZ_hqvo-9" value="" style="edgeStyle=orthogonalEdgeStyle;rounded=0;orthogonalLoop=1;jettySize=auto;html=1;" edge="1" parent="WIyWlLk6GJQsqaUBKTNV-1" source="YOyxNGKHcGNXCFZ_hqvo-6" target="YOyxNGKHcGNXCFZ_hqvo-8">
          <mxGeometry relative="1" as="geometry" />
        </mxCell>
        <mxCell id="YOyxNGKHcGNXCFZ_hqvo-6" value="avg = sum / size" style="whiteSpace=wrap;html=1;" vertex="1" parent="WIyWlLk6GJQsqaUBKTNV-1">
          <mxGeometry x="588" y="295" width="120" height="60" as="geometry" />
        </mxCell>
        <mxCell id="YOyxNGKHcGNXCFZ_hqvo-19" value="" style="edgeStyle=orthogonalEdgeStyle;rounded=0;orthogonalLoop=1;jettySize=auto;html=1;" edge="1" parent="WIyWlLk6GJQsqaUBKTNV-1" source="YOyxNGKHcGNXCFZ_hqvo-8" target="YOyxNGKHcGNXCFZ_hqvo-18">
          <mxGeometry relative="1" as="geometry" />
        </mxCell>
        <mxCell id="YOyxNGKHcGNXCFZ_hqvo-8" value="print(avg)" style="shape=document;whiteSpace=wrap;html=1;boundedLbl=1;" vertex="1" parent="WIyWlLk6GJQsqaUBKTNV-1">
          <mxGeometry x="588" y="400" width="120" height="80" as="geometry" />
        </mxCell>
        <mxCell id="YOyxNGKHcGNXCFZ_hqvo-13" value="" style="edgeStyle=orthogonalEdgeStyle;rounded=0;orthogonalLoop=1;jettySize=auto;html=1;" edge="1" parent="WIyWlLk6GJQsqaUBKTNV-1" source="YOyxNGKHcGNXCFZ_hqvo-10" target="YOyxNGKHcGNXCFZ_hqvo-12">
          <mxGeometry relative="1" as="geometry" />
        </mxCell>
        <mxCell id="YOyxNGKHcGNXCFZ_hqvo-10" value="sum += number(index)" style="whiteSpace=wrap;html=1;" vertex="1" parent="WIyWlLk6GJQsqaUBKTNV-1">
          <mxGeometry x="341" y="470" width="146" height="60" as="geometry" />
        </mxCell>
        <mxCell id="YOyxNGKHcGNXCFZ_hqvo-12" value="index += 1" style="whiteSpace=wrap;html=1;" vertex="1" parent="WIyWlLk6GJQsqaUBKTNV-1">
          <mxGeometry x="354" y="610" width="120" height="60" as="geometry" />
        </mxCell>
        <mxCell id="YOyxNGKHcGNXCFZ_hqvo-14" value="" style="endArrow=classic;html=1;rounded=0;exitX=0;exitY=0.5;exitDx=0;exitDy=0;entryX=0;entryY=0.5;entryDx=0;entryDy=0;" edge="1" parent="WIyWlLk6GJQsqaUBKTNV-1" source="YOyxNGKHcGNXCFZ_hqvo-12" target="YOyxNGKHcGNXCFZ_hqvo-5">
          <mxGeometry width="50" height="50" relative="1" as="geometry">
            <mxPoint x="390" y="400" as="sourcePoint" />
            <mxPoint x="440" y="350" as="targetPoint" />
            <Array as="points">
              <mxPoint x="280" y="640" />
              <mxPoint x="280" y="325" />
            </Array>
          </mxGeometry>
        </mxCell>
        <mxCell id="YOyxNGKHcGNXCFZ_hqvo-17" value="Найти среднее арифметическое среди всех элементов массива [2, 5,&lt;br/&gt;13, 7, 6, 4]" style="text;html=1;strokeColor=none;fillColor=none;align=center;verticalAlign=middle;whiteSpace=wrap;rounded=0;" vertex="1" parent="WIyWlLk6GJQsqaUBKTNV-1">
          <mxGeometry x="50" y="40" width="190" height="100" as="geometry" />
        </mxCell>
        <mxCell id="YOyxNGKHcGNXCFZ_hqvo-18" value="Конец" style="rounded=1;whiteSpace=wrap;html=1;" vertex="1" parent="WIyWlLk6GJQsqaUBKTNV-1">
          <mxGeometry x="588" y="525" width="120" height="60" as="geometry" />
        </mxCell>
      </root>
    </mxGraphModel>
  </diagram>
</mxfile>
